# xmcd
#
# Track frame offsets: 
#        150
#        22650
#        46297
#        66790
#        88977
#        100660
#        109575
#        129820
#        161930
#        177040
#        186462
#        198325
#        209472
#        221430
#        233290
#        249230
#        261965
#        276342
#        291477
#
# Disc length: 4067 seconds
#
# Revision: 0
# Processed by: cddbd v1.5.2PL0 Copyright (c) Steve Scherf et al.
# Submitted via: ExactAudioCopy v0.95b4
#
DISCID=0e0fe113
DTITLE=Eastman-Rochester Pops Orchestra - Frederick Fennell conducts m
DTITLE=usic of Leroy Anderson and Eric Coates
DYEAR=1996
DGENRE=Classical
TTITLE0=Eric Coates: London Suite, orchestra   Covent Garden: Tarantel
TTITLE0=le
TTITLE1=Eric Coates: London Suite, orchestra   Westminster: Meditation
TTITLE2=Eric Coates: London Suite, orchestra   Knightsbridge: March
TTITLE3=Eric Coates: Four Ways Suite, orchestra   Northwards
TTITLE4=Eric Coates: Four Ways Suite, orchestra   Eastwards
TTITLE5=Leroy Anderson: Goldilocks, musical   Pirate dance
TTITLE6=Leroy Anderson: Suite of Carols (6), orchestra
TTITLE7=Leroy Anderson: A Christmas Festival, orchestra
TTITLE8=Leroy Anderson: Sandpaper Ballet, orchestra
TTITLE9=Leroy Anderson: Forgotten Dreams, orchestra
TTITLE10=Leroy Anderson: A Trumpeter's Lullaby, orchestra
TTITLE11=Leroy Anderson: The Pennywhistle Song, orchestra
TTITLE12=Leroy Anderson: Bugler's Holiday, orchestra
TTITLE13=Leroy Anderson: Irish Suite, orchestra   The Irish Washerwoma
TTITLE13=n
TTITLE14=Leroy Anderson: Irish Suite, orchestra   The Minstrel Boy
TTITLE15=Leroy Anderson: Irish Suite, orchestra   The Rakes of Mallow
TTITLE16=Leroy Anderson: Irish Suite, orchestra   The Wearing of the G
TTITLE16=reen
TTITLE17=Leroy Anderson: Irish Suite, orchestra   The Last Rose of Sum
TTITLE17=mer
TTITLE18=Leroy Anderson: Irish Suite, orchestra   The Girl I Left Behi
TTITLE18=nd
EXTD=
EXTT0=
EXTT1=
EXTT2=
EXTT3=
EXTT4=
EXTT5=
EXTT6=
EXTT7=
EXTT8=
EXTT9=
EXTT10=
EXTT11=
EXTT12=
EXTT13=
EXTT14=
EXTT15=
EXTT16=
EXTT17=
EXTT18=
PLAYORDER=
